<?xml version="1.0" encoding="utf-8"?>
<!-- Generator: Adobe Illustrator 19.0.1, SVG Export Plug-In . SVG Version: 6.00 Build 0)  -->
<svg version="1.1" id="Layer_1" xmlns="http://www.w3.org/2000/svg" xmlns:xlink="http://www.w3.org/1999/xlink" x="0px" y="0px"
	 viewBox="0 0 20 20" enable-background="new 0 0 20 20" xml:space="preserve">
<g>
	<path fill="#B3B3B3" d="M6.6,0L0.5,6.1L0.4,17.6c0,0.6,0.2,1.3,0.7,1.7C1.6,19.7,2.2,20,2.9,20h14.5c1.3,0,2.4-1.1,2.4-2.4V6.3
		L14.1,0H6.6z M18.4,17.6c0,0.6-0.5,1.1-1.1,1.1H2.9c-0.3,0-0.6-0.1-0.8-0.3c-0.2-0.2-0.3-0.5-0.3-0.8L1.8,6.6l5.3-5.3h6.3l4.9,5.5
		V17.6z"/>
	<path fill="#B3B3B3" d="M8.1,2.3c-1,0-1.8,0.8-1.8,1.8s0.8,1.8,1.8,1.8h4.1c1,0,1.8-0.8,1.8-1.8s-0.8-1.8-1.8-1.8H8.1z M12.7,4.1
		c0,0.3-0.2,0.5-0.5,0.5H8.1c-0.3,0-0.5-0.2-0.5-0.5c0-0.3,0.2-0.5,0.5-0.5h4.1C12.5,3.6,12.7,3.9,12.7,4.1z"/>
</g>
</svg>
