<?xml version="1.0" encoding="utf-8"?>
<!-- Generator: Adobe Illustrator 19.0.1, SVG Export Plug-In . SVG Version: 6.00 Build 0)  -->
<svg version="1.1" id="Layer_1" xmlns="http://www.w3.org/2000/svg" xmlns:xlink="http://www.w3.org/1999/xlink" x="0px" y="0px"
	 viewBox="-295 388.2 20 17.8" style="enable-background:new -295 388.2 20 17.8;" xml:space="preserve">
<style type="text/css">
	.st0{fill:#B3B3B3;}
</style>
<path class="st0" d="M-275.1,392.4c-0.1-2-0.5-3.4-0.6-3.8c0-0.1-0.1-0.2-0.2-0.3c-0.2-0.1-0.3-0.1-0.4-0.1
	c-0.5,0.2-3.5,1.1-8.7,1.1c-5.2,0.1-8.2-0.9-8.7-1.1c-0.2,0-0.4,0-0.5,0.3c-0.1,0.2-0.4,1-0.7,4c-0.2,3,0.1,4.7,0.1,4.7v0.2l0.2,0.1
	c3.5,1,4.4,6.8,4.4,6.9v0.1h0.2c2,1.6,4.7,1.5,5,1.5c0,0,0.1,0,0.3,0c0.8,0,3-0.1,4.8-1.5l0.1-0.1v-0.1c0-0.1,0.9-5.9,4.4-6.9
	l0.2-0.1v-0.2C-275.2,397.1-274.9,396-275.1,392.4z M-293.9,389.8c0.1-0.4,0.1-0.7,0.2-0.9c0.9,0.3,3.8,1.1,8.7,1.1
	c4.8,0,7.8-0.8,8.7-1.1c0,0,0.9,2.4,0.6,6.8l0,0c0,0.4,0,0.7-0.1,0.9c-1.1,0.4-4.1,2.1-4.8,7.6c-1.9,1.3-4.4,1.2-4.4,1.2
	c-0.1,0-2.5,0.1-4.4-1.2c-0.7-5.5-3.8-7.2-4.8-7.6C-294.2,396.6-294.7,392.8-293.9,389.8z"/>
<g>
	<g>
		<path class="st0" d="M-294.3,396.1c0,0,0.1,0,0.2,0"/>
	</g>
	<g>
		<path class="st0" d="M-288.7,403.7l-0.2-0.1c0-0.1,0.1-0.3,0.1-0.5h0.2C-288.6,403.4-288.7,403.6-288.7,403.7z M-288.6,402.8h-0.2
			c0-0.1,0-0.3,0-0.4l0,0h0.3l0,0C-288.5,402.5-288.5,402.6-288.6,402.8z M-288.8,401.8c0-0.2,0-0.3,0-0.5h0.2c0,0.2,0,0.3,0.1,0.5
			H-288.8z M-288.9,400.8c0-0.2-0.1-0.3-0.1-0.5l0.2-0.1c0,0.2,0.1,0.3,0.1,0.5L-288.9,400.8z M-289.2,399.9c0-0.1-0.1-0.3-0.2-0.5
			l0.2-0.1c0.1,0.2,0.1,0.3,0.2,0.5L-289.2,399.9z M-289.5,399c0-0.1-0.1-0.2-0.1-0.3c0-0.1-0.1-0.1-0.1-0.2l0.2-0.1
			c0,0.1,0.1,0.1,0.1,0.2s0.1,0.2,0.1,0.3L-289.5,399z M-290,398.2c-0.1-0.1-0.2-0.3-0.3-0.4l0.2-0.2c0.1,0.1,0.2,0.3,0.3,0.4
			L-290,398.2z M-290.6,397.5c-0.1-0.1-0.2-0.2-0.4-0.3l0.2-0.2c0.1,0.1,0.3,0.2,0.4,0.3L-290.6,397.5z M-291.3,396.9
			c-0.1-0.1-0.3-0.2-0.4-0.2l0.1-0.2c0.1,0.1,0.3,0.2,0.4,0.2L-291.3,396.9z M-292.2,396.5c-0.1-0.1-0.3-0.1-0.5-0.1l0.1-0.2
			c0.2,0,0.3,0.1,0.5,0.1L-292.2,396.5z M-293.1,396.2c-0.2,0-0.3,0-0.5,0v-0.3c0.2,0,0.3,0,0.5,0V396.2z"/>
	</g>
	<g>
		<path class="st0" d="M-288.9,404.2c0,0.2-0.1,0.2-0.1,0.2"/>
	</g>
</g>
<g>
	<path class="st0" d="M-284.4,392.3c-5.1,0-9.7-1.4-10.1-1.5l0.1-0.5c0.1,0,12.1,3.7,18.5-0.7l0.3,0.4
		C-278,391.7-281.3,392.3-284.4,392.3z"/>
</g>
<g>
	<g>
		<path class="st0" d="M-276,396.1c0,0-0.1,0-0.2,0"/>
	</g>
	<g>
		<path class="st0" d="M-281.7,403.3h0.2c0,0.2,0.1,0.3,0.1,0.5l-0.2,0.1C-281.6,403.6-281.7,403.4-281.7,403.3z M-281.8,402.3
			L-281.8,402.3h0.3l0,0c0,0.2,0,0.3,0,0.4h-0.2C-281.8,402.6-281.8,402.5-281.8,402.3z M-281.7,401.8c0-0.2,0-0.3,0.1-0.5h0.2
			c0,0.2,0,0.3,0,0.5H-281.7z M-281.6,400.8c0-0.2,0.1-0.3,0.1-0.5l0.2,0.1c0,0.2-0.1,0.3-0.1,0.5L-281.6,400.8z M-281.4,399.8
			c0.1-0.2,0.1-0.3,0.2-0.5l0.2,0.1c-0.1,0.2-0.1,0.3-0.2,0.5L-281.4,399.8z M-281,398.9c0-0.1,0.1-0.2,0.1-0.3
			c0-0.1,0.1-0.1,0.1-0.2l0.2,0.1c0,0.1-0.1,0.1-0.1,0.2s-0.1,0.2-0.1,0.3L-281,398.9z M-280.5,398.1c0.1-0.1,0.2-0.3,0.3-0.4
			l0.2,0.2c-0.1,0.1-0.2,0.2-0.3,0.4L-280.5,398.1z M-279.9,397.3c0.1-0.1,0.2-0.2,0.4-0.3l0.2,0.2c-0.1,0.1-0.2,0.2-0.4,0.3
			L-279.9,397.3z M-279.1,396.7c0.1-0.1,0.3-0.2,0.4-0.2l0.1,0.2c-0.1,0.1-0.3,0.1-0.4,0.2L-279.1,396.7z M-278.2,396.2
			c0.2-0.1,0.3-0.1,0.5-0.1l0.1,0.2c-0.2,0-0.3,0.1-0.5,0.1L-278.2,396.2z M-277.2,396c0.2,0,0.3,0,0.5,0v0.3c-0.2,0-0.3,0-0.5,0
			V396z"/>
	</g>
	<g>
		<path class="st0" d="M-281.4,404.2c0,0.2,0.1,0.2,0.1,0.2"/>
	</g>
</g>
</svg>
