<svg id="Capa_1" data-name="Capa 1" xmlns="http://www.w3.org/2000/svg" viewBox="0 0 499.4 499.99"><defs><style>.cls-1,.cls-2{fill:none;stroke:#b3b3b3;stroke-miterlimit:10;}.cls-1{stroke-width:31px;}.cls-2{stroke-width:11px;}</style></defs><title>icon-weight</title><path class="cls-1" d="M342.66,490.49H110A88.38,88.38,0,0,1,21.8,402.17V109.83A88.38,88.38,0,0,1,110,21.51H402a88.38,88.38,0,0,1,88.21,88.32V402.17A88.38,88.38,0,0,1,402,490.49H328.26" transform="translate(-6.3 -6.01)"/><path class="cls-2" d="M327.5,217.3a25.27,25.27,0,0,0,32.4-11.1l9.4-17.1a7.59,7.59,0,1,0-13.3-7.3l-9.4,17.1a10.27,10.27,0,0,1-13,4.5,192.85,192.85,0,0,0-70-16.2v-69a7.6,7.6,0,0,0-15.2,0v69.1a190.82,190.82,0,0,0-70,16.2,10.23,10.23,0,0,1-13-4.5l-39.2-71.3a10.21,10.21,0,0,1,4.5-14.2,293.88,293.88,0,0,1,250.6-.2,10.24,10.24,0,0,1,4.5,14.2l-15.2,27.7a7.59,7.59,0,0,0,13.3,7.3l15.2-27.7a25.42,25.42,0,0,0-11.3-35.2,309.77,309.77,0,0,0-263.6,0,25.35,25.35,0,0,0-11.3,35.2l39.2,71.3a25.37,25.37,0,0,0,32.4,11.1,177.5,177.5,0,0,1,143,.1Z" transform="translate(-6.3 -6.01)"/></svg>